# xmcd
#
# Track frame offsets:
#	150
#	25724
#	37086
#	58584
#	77069
#	94407
#	113742
#	125511
#	141945
#	163093
#	182163
#	203308
#
# Disc length: 3048 seconds
# Revision: 0
# Processed by: cddbd v1.5.2PL0 Copyright (c) Steve Scherf et al.
# Submitted via: dBpowerAMP V12.0
#
DISCID=a00be60c
DTITLE=Bindu - White Man's Burden
DYEAR=2006
DGENRE=
TTITLE0=Garbage Life
TTITLE1=I Dreamt About G. B. Last Night
TTITLE2=White Man's Burden
TTITLE3=Wings
TTITLE4=The Cloth Boy
TTITLE5=Real Love
TTITLE6=In The Frying Pan
TTITLE7=Drive To Survie
TTITLE8=When The Players Are Gone
TTITLE9=Magic Man
TTITLE10=Alone Now
TTITLE11=Doggo
EXTD=
EXTT0=
EXTT1=
EXTT2=
EXTT3=
EXTT4=
EXTT5=
EXTT6=
EXTT7=
EXTT8=
EXTT9=
EXTT10=
EXTT11=
PLAYORDER=
